<svg version="1.1" viewBox="0.0 0.0 358.56167979002623 296.244094488189" fill="none" stroke="none" stroke-linecap="square" stroke-miterlimit="10" xmlns:xlink="http://www.w3.org/1999/xlink" xmlns="http://www.w3.org/2000/svg"><clipPath id="p.0"><path d="m0 0l358.56168 0l0 296.24408l-358.56168 0l0 -296.24408z" clip-rule="nonzero"/></clipPath><g clip-path="url(#p.0)"><path fill="#000000" fill-opacity="0.0" d="m0 0l358.56168 0l0 296.24408l-358.56168 0z" fill-rule="evenodd"/><path fill="#000000" fill-opacity="0.0" d="m97.154854 89.59318l80.062996 0l0 44.314964l-80.062996 0z" fill-rule="evenodd"/><path fill="#000000" d="m116.88923 116.2163q-1.40625 0.59375 -2.90625 0.59375q-1.953125 0 -3.546875 -0.921875q-1.59375 -0.921875 -2.515625 -2.515625q-0.90625 -1.609375 -0.90625 -3.53125q0 -1.921875 0.90625 -3.53125q0.921875 -1.609375 2.515625 -2.53125q1.59375 -0.921875 3.546875 -0.921875q1.96875 0 3.5625 0.921875q1.59375 0.921875 2.5 2.53125q0.921875 1.609375 0.921875 3.53125q0 1.515625 -0.578125 2.84375q-0.578125 1.328125 -1.625 2.296875l1.03125 1.53125l-1.875 1.25l-1.03125 -1.546875zm-2.90625 -1.796875q0.734375 0 1.515625 -0.28125l-1.453125 -2.171875l1.859375 -1.28125l1.46875 2.203125q0.515625 -0.578125 0.796875 -1.359375q0.28125 -0.78125 0.28125 -1.6875q0 -1.34375 -0.59375 -2.390625q-0.578125 -1.046875 -1.609375 -1.625q-1.03125 -0.578125 -2.265625 -0.578125q-1.21875 0 -2.234375 0.578125q-1.015625 0.578125 -1.609375 1.625q-0.59375 1.046875 -0.59375 2.390625q0 1.34375 0.59375 2.390625q0.59375 1.03125 1.609375 1.609375q1.015625 0.578125 2.234375 0.578125zm12.468124 2.390625q-1.71875 0 -2.609375 -1.0625q-0.890625 -1.0625 -0.890625 -2.96875l0 -5.78125l2.4375 0l0 5.484375q0 0.96875 0.46875 1.53125q0.46875 0.546875 1.234375 0.546875q1.0468826 0 1.6562576 -0.765625q0.609375 -0.765625 0.609375 -1.953125l0 -4.84375l2.453125 0l0 9.515625l-2.296875 0l0 -1.1875l-0.15625 0q-0.421875 0.6875 -1.203125 1.09375q-0.7656326 0.390625 -1.7031326 0.390625zm12.206352 0q-1.421875 0 -2.5625 -0.640625q-1.140625 -0.65625 -1.78125 -1.796875q-0.640625 -1.15625 -0.640625 -2.59375q0 -1.359375 0.625 -2.53125q0.640625 -1.171875 1.75 -1.859375q1.125 -0.6875 2.515625 -0.6875q1.46875 0 2.53125 0.640625q1.0625 0.625 1.609375 1.734375q0.5625 1.09375 0.5625 2.4375q0 0.421875 -0.0625 0.828125l-7.140625 0q0.1875 1.125 0.90625 1.71875q0.71875 0.59375 1.71875 0.59375q0.84375 0 1.453125 -0.359375q0.609375 -0.375 0.953125 -0.984375l1.984375 0.96875q-1.453125 2.53125 -4.421875 2.53125zm2.25 -6.203125q-0.03125 -0.453125 -0.328125 -0.890625q-0.28125 -0.4375 -0.796875 -0.71875q-0.515625 -0.296875 -1.203125 -0.296875q-0.875 0 -1.5 0.515625q-0.625 0.5 -0.90625 1.390625l4.734375 0zm4.2324677 -3.609375l2.296875 0l0 1.265625l0.15625 0q0.359375 -0.671875 1.09375 -1.109375q0.75 -0.4375 1.640625 -0.4375q0.65625 0 1.203125 0.203125l0 2.453125q-0.5 -0.1875 -0.859375 -0.265625q-0.34375 -0.09375 -0.734375 -0.09375q-1.078125 0 -1.71875 0.78125q-0.625 0.78125 -0.625 1.984375l0 4.734375l-2.453125 0l0 -9.515625zm10.934967 9.0625l-4.0 -9.0625l2.765625 0l2.46875 5.921875l0.15625 0l2.359375 -5.921875l2.734375 0l-5.890625 13.546875l-2.625 0l2.03125 -4.484375z" fill-rule="nonzero"/><path fill="#000000" fill-opacity="0.0" d="m56.70866 290.7874l128.22047 -125.85828" fill-rule="evenodd"/><path stroke="#0000ff" stroke-width="2.0" stroke-linejoin="round" stroke-linecap="butt" d="m56.70866 290.7874l119.65668 -117.452255" fill-rule="evenodd"/><path fill="#0000ff" stroke="#0000ff" stroke-width="2.0" stroke-linecap="butt" d="m178.67941 175.69269l4.163147 -8.715424l-8.791306 4.0003815z" fill-rule="evenodd"/><path fill="#000000" fill-opacity="0.0" d="m57.889763 290.7874l5.921261 -55.527573" fill-rule="evenodd"/><path stroke="#0f9d58" stroke-width="2.0" stroke-linejoin="round" stroke-linecap="butt" d="m57.889763 290.7874l4.648838 -43.595215" fill-rule="evenodd"/><path fill="#0f9d58" stroke="#0f9d58" stroke-width="2.0" stroke-linecap="butt" d="m65.82344 247.54248l-2.322445 -9.37532l-4.2472343 8.674744z" fill-rule="evenodd"/><path fill="#000000" fill-opacity="0.0" d="m57.889763 289.6063l230.4252 -281.22833" fill-rule="evenodd"/><path stroke="#e69138" stroke-width="2.0" stroke-linejoin="round" stroke-linecap="butt" d="m57.889763 289.6063l222.81982 -271.94617" fill-rule="evenodd"/><path fill="#e69138" stroke="#e69138" stroke-width="2.0" stroke-linecap="butt" d="m283.26486 19.753782l3.197052 -9.114228l-8.307587 4.9268866z" fill-rule="evenodd"/><path fill="#000000" fill-opacity="0.0" d="m-6.9091706 197.70079l80.062996 0l0 44.314957l-80.062996 0z" fill-rule="evenodd"/><path fill="#0f9d58" d="m4.822223 211.26141l2.515625 0l0 13.359375l-2.515625 0l0 -13.359375zm9.356445 13.515625q-0.703125 0 -1.296875 -0.21875q-0.59375 -0.21875 -0.96875 -0.59375q-0.875 -0.84375 -0.875 -2.390625l0 -4.375l-1.671875 0l0 -2.09375l1.671875 0l0 -2.6875l2.4375 0l0 2.6875l2.328125 0l0 2.09375l-2.328125 0l0 3.9375q0 0.71875 0.3125 1.046875q0.265625 0.296875 0.90625 0.296875q0.34375 0 0.578125 -0.09375q0.234375 -0.09375 0.609375 -0.328125l0 2.390625q-0.796875 0.328125 -1.703125 0.328125zm8.126434 0.140625q-1.421875 0 -2.5625 -0.640625q-1.140625 -0.65625 -1.78125 -1.796875q-0.640625 -1.15625 -0.640625 -2.59375q0 -1.359375 0.625 -2.53125q0.640625 -1.171875 1.75 -1.859375q1.125 -0.6875 2.515625 -0.6875q1.46875 0 2.53125 0.640625q1.0624981 0.625 1.6093731 1.734375q0.5625 1.09375 0.5625 2.4375q0 0.421875 -0.0625 0.828125l-7.140623 0q0.1875 1.125 0.90625 1.71875q0.71875 0.59375 1.71875 0.59375q0.84375 0 1.453125 -0.359375q0.609375 -0.375 0.953125 -0.984375l1.9843731 0.96875q-1.453125 2.53125 -4.421873 2.53125zm2.25 -6.203125q-0.03125 -0.453125 -0.328125 -0.890625q-0.28125 -0.4375 -0.796875 -0.71875q-0.515625 -0.296875 -1.203125 -0.296875q-0.875 0 -1.5 0.515625q-0.625 0.5 -0.90625 1.390625l4.734375 0zm4.2324657 -3.609375l2.296875 0l0 1.1875l0.15625 0q0.4375 -0.6875 1.1874981 -1.078125q0.765625 -0.40625 1.703125 -0.40625q1.0 0 1.75 0.484375q0.75 0.46875 1.0625 1.1875q0.46875 -0.734375 1.28125 -1.203125q0.8125 -0.46875 1.90625 -0.46875q1.625 0 2.46875 1.0q0.859375 1.0 0.859375 2.6875l0 6.125l-2.421875 0l0 -5.671875q0 -0.890625 -0.421875 -1.375q-0.421875 -0.484375 -1.171875 -0.484375q-0.953125 0 -1.53125 0.75q-0.5625 0.75 -0.5625 1.984375l0 4.796875l-2.4375 0l0 -5.671875q0 -0.890625 -0.4375 -1.375q-0.4375 -0.484375 -1.234375 -0.484375q-0.90625 0 -1.4531231 0.75q-0.546875 0.75 -0.546875 1.984375l0 4.796875l-2.453125 0l0 -9.515625zm15.808348 9.515625l0 0zm12.224945 0.296875q-1.953125 0 -3.5625 -0.921875q-1.59375 -0.921875 -2.515625 -2.515625q-0.921875 -1.59375 -0.921875 -3.53125q0 -1.953125 0.921875 -3.546875q0.921875 -1.59375 2.515625 -2.515625q1.609375 -0.921875 3.5625 -0.921875q3.015625 0 5.0 2.1875l-1.78125 1.71875q-1.28125 -1.515625 -3.203125 -1.515625q-1.25 0 -2.28125 0.578125q-1.015625 0.5625 -1.609375 1.609375q-0.59375 1.03125 -0.59375 2.40625q0 1.359375 0.59375 2.40625q0.59375 1.03125 1.609375 1.609375q1.03125 0.5625 2.28125 0.5625q2.109375 0 3.53125 -1.75l1.78125 1.703125q-0.984375 1.1875 -2.34375 1.8125q-1.34375 0.625 -2.984375 0.625z" fill-rule="nonzero"/><path fill="#000000" fill-opacity="0.0" d="m280.49954 -4.0435853l80.06299 0l0 44.31496l-80.06299 0z" fill-rule="evenodd"/><path fill="#e69138" d="m292.4921 9.517037l2.515625 0l0 13.359376l-2.515625 0l0 -13.359376zm9.356445 13.515626q-0.703125 0 -1.296875 -0.21875q-0.59375 -0.21875 -0.96875 -0.59375q-0.875 -0.84375 -0.875 -2.390625l0 -4.375001l-1.671875 0l0 -2.09375l1.671875 0l0 -2.6875l2.4375 0l0 2.6875l2.328125 0l0 2.09375l-2.328125 0l0 3.937501q0 0.71875 0.3125 1.046875q0.265625 0.296875 0.90625 0.296875q0.34375 0 0.578125 -0.09375q0.234375 -0.09375 0.609375 -0.328125l0 2.390625q-0.796875 0.328125 -1.703125 0.328125zm8.126434 0.140625q-1.421875 0 -2.5625 -0.640625q-1.140625 -0.65625 -1.78125 -1.796875q-0.640625 -1.15625 -0.640625 -2.59375q0 -1.359375 0.625 -2.531251q0.640625 -1.171875 1.75 -1.859375q1.125 -0.6875 2.515625 -0.6875q1.46875 0 2.53125 0.640625q1.0625 0.625 1.609375 1.734375q0.5625 1.093751 0.5625 2.437501q0 0.421875 -0.0625 0.828125l-7.140625 0q0.1875 1.125 0.90625 1.71875q0.71875 0.59375 1.71875 0.59375q0.84375 0 1.453125 -0.359375q0.609375 -0.375 0.953125 -0.984375l1.984375 0.96875q-1.453125 2.53125 -4.421875 2.53125zm2.25 -6.203125q-0.03125 -0.453125 -0.328125 -0.890625q-0.28125 -0.43750095 -0.796875 -0.71875095q-0.515625 -0.296875 -1.203125 -0.296875q-0.875 0 -1.5 0.515625q-0.625 0.50000095 -0.90625 1.390626l4.734375 0zm4.232483 -3.609376l2.296875 0l0 1.1875l0.15625 0q0.4375 -0.6875 1.1875 -1.078125q0.765625 -0.40625 1.703125 -0.40625q1.0 0 1.75 0.484375q0.75 0.46875 1.0625 1.1875q0.46875 -0.734375 1.28125 -1.203125q0.8125 -0.46875 1.90625 -0.46875q1.625 0 2.46875 1.0q0.859375 1.0 0.859375 2.687501l0 6.125l-2.421875 0l0 -5.671875q0 -0.890625 -0.421875 -1.375001q-0.421875 -0.484375 -1.171875 -0.484375q-0.953125 0 -1.53125 0.75000095q-0.5625 0.75 -0.5625 1.984375l0 4.796875l-2.4375 0l0 -5.671875q0 -0.890625 -0.4375 -1.375001q-0.4375 -0.484375 -1.234375 -0.484375q-0.90625 0 -1.453125 0.75000095q-0.546875 0.75 -0.546875 1.984375l0 4.796875l-2.453125 0l0 -9.515626zm15.80835 9.515626l0 0zm9.64682 -13.359376l2.890625 0l5.015625 13.359376l-2.78125 0l-1.109375 -3.1875l-5.125 0l-1.109375 3.1875l-2.78125 0l5.0 -13.359376zm3.1875 7.859376l-1.171875 -3.359376l-0.484375 -1.609375l-0.15625 0l-0.484375 1.609375l-1.1875 3.359376l3.484375 0z" fill-rule="nonzero"/><path fill="#000000" fill-opacity="0.0" d="m177.09084 141.72885l80.06297 0l0 44.314957l-80.06297 0z" fill-rule="evenodd"/><path fill="#0000ff" d="m189.78302 155.28947l2.515625 0l0 13.359375l-2.515625 0l0 -13.359375zm9.356445 13.515625q-0.703125 0 -1.296875 -0.21875q-0.59375 -0.21875 -0.96875 -0.59375q-0.875 -0.84375 -0.875 -2.390625l0 -4.375l-1.671875 0l0 -2.09375l1.671875 0l0 -2.6875l2.4375 0l0 2.6875l2.328125 0l0 2.09375l-2.328125 0l0 3.9375q0 0.71875 0.3125 1.046875q0.265625 0.296875 0.90625 0.296875q0.34375 0 0.578125 -0.09375q0.234375 -0.09375 0.609375 -0.328125l0 2.390625q-0.796875 0.328125 -1.703125 0.328125zm8.126434 0.140625q-1.421875 0 -2.5625 -0.640625q-1.140625 -0.65625 -1.78125 -1.796875q-0.640625 -1.15625 -0.640625 -2.59375q0 -1.359375 0.625 -2.53125q0.640625 -1.171875 1.75 -1.859375q1.125 -0.6875 2.515625 -0.6875q1.46875 0 2.53125 0.640625q1.0625 0.625 1.609375 1.734375q0.5625 1.09375 0.5625 2.4375q0 0.421875 -0.0625 0.828125l-7.140625 0q0.1875 1.125 0.90625 1.71875q0.71875 0.59375 1.71875 0.59375q0.84375 0 1.453125 -0.359375q0.609375 -0.375 0.953125 -0.984375l1.984375 0.96875q-1.453125 2.53125 -4.421875 2.53125zm2.25 -6.203125q-0.03125 -0.453125 -0.328125 -0.890625q-0.28125 -0.4375 -0.796875 -0.71875q-0.515625 -0.296875 -1.203125 -0.296875q-0.875 0 -1.5 0.515625q-0.625 0.5 -0.90625 1.390625l4.734375 0zm4.2324677 -3.609375l2.296875 0l0 1.1875l0.15625 0q0.4375 -0.6875 1.1875 -1.078125q0.765625 -0.40625 1.703125 -0.40625q1.0 0 1.75 0.484375q0.75 0.46875 1.0625 1.1875q0.46875 -0.734375 1.28125 -1.203125q0.8125 -0.46875 1.90625 -0.46875q1.625 0 2.46875 1.0q0.859375 1.0 0.859375 2.6875l0 6.125l-2.421875 0l0 -5.671875q0 -0.890625 -0.421875 -1.375q-0.421875 -0.484375 -1.171875 -0.484375q-0.953125 0 -1.53125 0.75q-0.5625 0.75 -0.5625 1.984375l0 4.796875l-2.4375 0l0 -5.671875q0 -0.890625 -0.4375 -1.375q-0.4375 -0.484375 -1.234375 -0.484375q-0.90625 0 -1.453125 0.75q-0.546875 0.75 -0.546875 1.984375l0 4.796875l-2.453125 0l0 -9.515625zm15.80835 9.515625l0 0zm5.89682 -13.359375l5.21875 0q1.125 0 2.0625 0.46875q0.9375 0.46875 1.484375 1.265625q0.546875 0.796875 0.546875 1.75q0 1.015625 -0.5 1.75q-0.5 0.734375 -1.296875 1.125l0 0.15625q1.046875 0.375 1.65625 1.1875q0.625 0.8125 0.625 1.9375q0 1.109375 -0.59375 1.953125q-0.578125 0.84375 -1.578125 1.3125q-1.0 0.453125 -2.21875 0.453125l-5.40625 0l0 -13.359375zm5.03125 5.453125q0.828125 0 1.3125 -0.453125q0.5 -0.46875 0.5 -1.15625q0 -0.671875 -0.484375 -1.125q-0.46875 -0.453125 -1.25 -0.453125l-2.59375 0l0 3.1875l2.515625 0zm0.28125 5.609375q0.921875 0 1.421875 -0.46875q0.515625 -0.484375 0.515625 -1.25q0 -0.765625 -0.515625 -1.25q-0.515625 -0.484375 -1.5 -0.484375l-2.71875 0l0 3.453125l2.796875 0zm5.2268524 2.296875l0 0z" fill-rule="nonzero"/><path fill="#000000" fill-opacity="0.0" d="m56.70866 291.37796l49.03937 -168.37796" fill-rule="evenodd"/><path stroke="#000000" stroke-width="3.0" stroke-linejoin="round" stroke-linecap="butt" d="m56.70866 291.37796l44.00607 -151.09601" fill-rule="evenodd"/><path fill="#000000" stroke="#000000" stroke-width="3.0" stroke-linecap="butt" d="m105.47226 141.66756l-0.95059204 -14.456802l-8.564461 11.685593z" fill-rule="evenodd"/></g></svg>