<?xml version="1.0" encoding="UTF-8" standalone="no"?>
<!DOCTYPE svg PUBLIC "-//W3C//DTD SVG 1.1//EN"
 "http://www.w3.org/Graphics/SVG/1.1/DTD/svg11.dtd">
<!-- Generated by graphviz version 6.0.1 (0)
 -->
<!-- Pages: 1 -->
<svg width="301pt" height="389pt"
 viewBox="0.00 0.00 301.18 389.00" xmlns="http://www.w3.org/2000/svg" xmlns:xlink="http://www.w3.org/1999/xlink">
<g id="graph0" class="graph" transform="scale(1 1) rotate(0) translate(4 385)">
<polygon fill="white" stroke="none" points="-4,4 -4,-385 297.18,-385 297.18,4 -4,4"/>
<g id="clust1" class="cluster">
<title>cluster_0</title>
<polygon fill="none" stroke="white" points="8,-8 8,-373 127.99,-373 127.99,-8 8,-8"/>
<text text-anchor="middle" x="68" y="-357.8" font-family="Times,serif" font-size="14.00">inputs</text>
</g>
<g id="clust2" class="cluster">
<title>cluster_2</title>
<polygon fill="none" stroke="white" points="172.99,-128 172.99,-263 285.18,-263 285.18,-128 172.99,-128"/>
<text text-anchor="middle" x="229.09" y="-247.8" font-family="Times,serif" font-size="14.00">output</text>
</g>
<!-- boring=1 -->
<g id="node1" class="node">
<title>boring=1</title>
<ellipse fill="none" stroke="black" cx="68" cy="-298" rx="43.59" ry="43.59"/>
<text text-anchor="middle" x="68" y="-294.3" font-family="Times,serif" font-size="14.00">boring=1</text>
</g>
<!-- y_hat=pos -->
<g id="node4" class="node">
<title>y_hat=pos</title>
<ellipse fill="none" stroke="black" cx="229.09" cy="-184" rx="48.19" ry="48.19"/>
<text text-anchor="middle" x="229.09" y="-180.3" font-family="Times,serif" font-size="14.00">y_hat=pos</text>
</g>
<!-- boring=1&#45;&gt;y_hat=pos -->
<g id="edge1" class="edge">
<title>boring=1&#45;&gt;y_hat=pos</title>
<path fill="none" stroke="black" d="M103.91,-272.98C126.67,-256.67 156.64,-235.19 181.44,-217.43"/>
<polygon fill="black" stroke="black" points="183.54,-220.22 189.63,-211.55 179.47,-214.53 183.54,-220.22"/>
<text text-anchor="middle" x="150.49" y="-250.8" font-family="Times,serif" font-size="14.00">&#45;1.4</text>
</g>
<!-- excellent=1 -->
<g id="node2" class="node">
<title>excellent=1</title>
<ellipse fill="none" stroke="black" cx="68" cy="-184" rx="51.99" ry="51.99"/>
<text text-anchor="middle" x="68" y="-180.3" font-family="Times,serif" font-size="14.00">excellent=1</text>
</g>
<!-- excellent=1&#45;&gt;y_hat=pos -->
<g id="edge2" class="edge">
<title>excellent=1&#45;&gt;y_hat=pos</title>
<path fill="none" stroke="black" d="M120.21,-184C136.31,-184 154.18,-184 170.68,-184"/>
<polygon fill="black" stroke="black" points="170.75,-187.5 180.75,-184 170.75,-180.5 170.75,-187.5"/>
<text text-anchor="middle" x="150.49" y="-187.8" font-family="Times,serif" font-size="14.00">1.93</text>
</g>
<!-- flawless=1 -->
<g id="node3" class="node">
<title>flawless=1</title>
<ellipse fill="none" stroke="black" cx="68" cy="-65" rx="49.29" ry="49.29"/>
<text text-anchor="middle" x="68" y="-61.3" font-family="Times,serif" font-size="14.00">flawless=1</text>
</g>
<!-- flawless=1&#45;&gt;y_hat=pos -->
<g id="edge3" class="edge">
<title>flawless=1&#45;&gt;y_hat=pos</title>
<path fill="none" stroke="black" d="M107.91,-94.11C130.3,-110.85 158.54,-131.98 182.03,-149.55"/>
<polygon fill="black" stroke="black" points="180.02,-152.41 190.12,-155.6 184.21,-146.81 180.02,-152.41"/>
<text text-anchor="middle" x="150.49" y="-138.8" font-family="Times,serif" font-size="14.00">1.43</text>
</g>
</g>
</svg>