<?xml version="1.0" encoding="UTF-8" standalone="no"?>
<!DOCTYPE svg PUBLIC "-//W3C//DTD SVG 1.1//EN"
 "http://www.w3.org/Graphics/SVG/1.1/DTD/svg11.dtd">
<!-- Generated by graphviz version 8.1.0 (20230707.0739)
 -->
<!-- Pages: 1 -->
<svg width="174pt" height="263pt"
 viewBox="0.00 0.00 173.50 263.00" xmlns="http://www.w3.org/2000/svg" xmlns:xlink="http://www.w3.org/1999/xlink">
<g id="graph0" class="graph" transform="scale(1 1) rotate(0) translate(4 259)">
<polygon fill="white" stroke="none" points="-4,4 -4,-259 169.5,-259 169.5,4 -4,4"/>
<g id="clust1" class="cluster">
<title>cluster_0</title>
<polygon fill="none" stroke="white" points="8,-8 8,-247 60,-247 60,-8 8,-8"/>
<text text-anchor="middle" x="34" y="-229.7" font-family="Times,serif" font-size="14.00">inputs</text>
</g>
<g id="clust2" class="cluster">
<title>cluster_2</title>
<polygon fill="none" stroke="white" points="105.5,-88 105.5,-165 157.5,-165 157.5,-88 105.5,-88"/>
<text text-anchor="middle" x="131.5" y="-147.7" font-family="Times,serif" font-size="14.00">output</text>
</g>
<!-- x[0] -->
<g id="node1" class="node">
<title>x[0]</title>
<ellipse fill="none" stroke="black" cx="34" cy="-196" rx="18" ry="18"/>
<text text-anchor="middle" x="34" y="-190.95" font-family="Times,serif" font-size="14.00">x[0]</text>
</g>
<!-- y -->
<g id="node5" class="node">
<title>y</title>
<ellipse fill="none" stroke="black" cx="131.5" cy="-114" rx="18" ry="18"/>
<text text-anchor="middle" x="131.5" y="-108.95" font-family="Times,serif" font-size="14.00">y</text>
</g>
<!-- x[0]&#45;&gt;y -->
<g id="edge1" class="edge">
<title>x[0]&#45;&gt;y</title>
<path fill="none" stroke="black" d="M48.28,-184.6C64.03,-171.07 90.5,-148.35 109.14,-132.34"/>
<polygon fill="black" stroke="black" points="111.03,-134.47 116.33,-125.3 106.47,-129.16 111.03,-134.47"/>
<text text-anchor="middle" x="82.75" y="-173.2" font-family="Times,serif" font-size="14.00">w[0]</text>
</g>
<!-- x[1] -->
<g id="node2" class="node">
<title>x[1]</title>
<ellipse fill="none" stroke="black" cx="34" cy="-142" rx="18" ry="18"/>
<text text-anchor="middle" x="34" y="-136.95" font-family="Times,serif" font-size="14.00">x[1]</text>
</g>
<!-- x[1]&#45;&gt;y -->
<g id="edge2" class="edge">
<title>x[1]&#45;&gt;y</title>
<path fill="none" stroke="black" d="M51.63,-137.12C65.93,-132.93 86.8,-126.81 103.49,-121.92"/>
<polygon fill="black" stroke="black" points="104.12,-125.09 112.74,-118.92 102.15,-118.37 104.12,-125.09"/>
<text text-anchor="middle" x="82.75" y="-134.2" font-family="Times,serif" font-size="14.00">w[1]</text>
</g>
<!-- x[2] -->
<g id="node3" class="node">
<title>x[2]</title>
<ellipse fill="none" stroke="black" cx="34" cy="-88" rx="18" ry="18"/>
<text text-anchor="middle" x="34" y="-82.95" font-family="Times,serif" font-size="14.00">x[2]</text>
</g>
<!-- x[2]&#45;&gt;y -->
<g id="edge3" class="edge">
<title>x[2]&#45;&gt;y</title>
<path fill="none" stroke="black" d="M51.63,-92.53C65.93,-96.42 86.8,-102.1 103.49,-106.65"/>
<polygon fill="black" stroke="black" points="102.17,-110.19 112.74,-109.44 104.01,-103.43 102.17,-110.19"/>
<text text-anchor="middle" x="82.75" y="-102.2" font-family="Times,serif" font-size="14.00">w[2]</text>
</g>
<!-- x[3] -->
<g id="node4" class="node">
<title>x[3]</title>
<ellipse fill="none" stroke="black" cx="34" cy="-34" rx="18" ry="18"/>
<text text-anchor="middle" x="34" y="-28.95" font-family="Times,serif" font-size="14.00">x[3]</text>
</g>
<!-- x[3]&#45;&gt;y -->
<g id="edge4" class="edge">
<title>x[3]&#45;&gt;y</title>
<path fill="none" stroke="black" d="M48.28,-45.12C63.94,-58.24 90.2,-80.24 108.82,-95.84"/>
<polygon fill="black" stroke="black" points="106.11,-98.97 116.03,-102.71 110.61,-93.61 106.11,-98.97"/>
<text text-anchor="middle" x="82.75" y="-76.2" font-family="Times,serif" font-size="14.00">w[3]</text>
</g>
</g>
</svg>