<?xml version="1.0" encoding="UTF-8" standalone="no"?>
<!DOCTYPE svg PUBLIC "-//W3C//DTD SVG 1.1//EN"
 "http://www.w3.org/Graphics/SVG/1.1/DTD/svg11.dtd">
<!-- Generated by graphviz version 7.1.0 (0)
 -->
<!-- Pages: 1 -->
<svg width="378pt" height="261pt"
 viewBox="0.00 0.00 378.00 261.00" xmlns="http://www.w3.org/2000/svg" xmlns:xlink="http://www.w3.org/1999/xlink">
<g id="graph0" class="graph" transform="scale(1 1) rotate(0) translate(4 257)">
<polygon fill="white" stroke="none" points="-4,4 -4,-257 374,-257 374,4 -4,4"/>
<g id="clust1" class="cluster">
<title>cluster_0</title>
<polygon fill="none" stroke="white" points="8,-8 8,-245 60,-245 60,-8 8,-8"/>
<text text-anchor="middle" x="34" y="-229.8" font-family="Times,serif" font-size="14.00">inputs</text>
</g>
<g id="clust2" class="cluster">
<title>cluster_1</title>
<polygon fill="none" stroke="white" points="80,-35 80,-218 175,-218 175,-35 80,-35"/>
<text text-anchor="middle" x="127.5" y="-202.8" font-family="Times,serif" font-size="14.00">hidden layer 1</text>
</g>
<g id="clust3" class="cluster">
<title>cluster_2</title>
<polygon fill="none" stroke="white" points="195,-35 195,-218 290,-218 290,-35 195,-35"/>
<text text-anchor="middle" x="242.5" y="-202.8" font-family="Times,serif" font-size="14.00">hidden layer 2</text>
</g>
<g id="clust4" class="cluster">
<title>cluster_3</title>
<polygon fill="none" stroke="white" points="310,-89 310,-164 362,-164 362,-89 310,-89"/>
<text text-anchor="middle" x="336" y="-148.8" font-family="Times,serif" font-size="14.00">output</text>
</g>
<!-- x[0] -->
<g id="node1" class="node">
<title>x[0]</title>
<ellipse fill="none" stroke="black" cx="34" cy="-196" rx="18" ry="18"/>
<text text-anchor="middle" x="34" y="-192.3" font-family="Times,serif" font-size="14.00">x[0]</text>
</g>
<!-- h1[0] -->
<g id="node5" class="node">
<title>h1[0]</title>
<ellipse fill="none" stroke="black" cx="127" cy="-61" rx="18" ry="18"/>
<text text-anchor="middle" x="127" y="-57.3" font-family="Times,serif" font-size="14.00">h1[0]</text>
</g>
<!-- x[0]&#45;&gt;h1[0] -->
<g id="edge1" class="edge">
<title>x[0]&#45;&gt;h1[0]</title>
<path fill="none" stroke="black" d="M44.91,-181.3C60.5,-158.17 90.91,-113.05 109.74,-85.13"/>
<polygon fill="black" stroke="black" points="112.57,-87.19 115.25,-76.94 106.76,-83.28 112.57,-87.19"/>
</g>
<!-- h1[1] -->
<g id="node6" class="node">
<title>h1[1]</title>
<ellipse fill="none" stroke="black" cx="127" cy="-169" rx="18" ry="18"/>
<text text-anchor="middle" x="127" y="-165.3" font-family="Times,serif" font-size="14.00">h1[1]</text>
</g>
<!-- x[0]&#45;&gt;h1[1] -->
<g id="edge2" class="edge">
<title>x[0]&#45;&gt;h1[1]</title>
<path fill="none" stroke="black" d="M51.69,-191.05C64.77,-187.17 83.26,-181.68 98.52,-177.15"/>
<polygon fill="black" stroke="black" points="99.37,-180.55 107.96,-174.35 97.38,-173.84 99.37,-180.55"/>
</g>
<!-- h1[2] -->
<g id="node7" class="node">
<title>h1[2]</title>
<ellipse fill="none" stroke="black" cx="127" cy="-115" rx="18" ry="18"/>
<text text-anchor="middle" x="127" y="-111.3" font-family="Times,serif" font-size="14.00">h1[2]</text>
</g>
<!-- x[0]&#45;&gt;h1[2] -->
<g id="edge3" class="edge">
<title>x[0]&#45;&gt;h1[2]</title>
<path fill="none" stroke="black" d="M48.04,-184.39C62.77,-171.28 86.97,-149.74 104.51,-134.13"/>
<polygon fill="black" stroke="black" points="106.71,-136.85 111.86,-127.59 102.06,-131.62 106.71,-136.85"/>
</g>
<!-- x[1] -->
<g id="node2" class="node">
<title>x[1]</title>
<ellipse fill="none" stroke="black" cx="34" cy="-142" rx="18" ry="18"/>
<text text-anchor="middle" x="34" y="-138.3" font-family="Times,serif" font-size="14.00">x[1]</text>
</g>
<!-- x[1]&#45;&gt;h1[0] -->
<g id="edge4" class="edge">
<title>x[1]&#45;&gt;h1[0]</title>
<path fill="none" stroke="black" d="M48.04,-130.39C62.77,-117.28 86.97,-95.74 104.51,-80.13"/>
<polygon fill="black" stroke="black" points="106.71,-82.85 111.86,-73.59 102.06,-77.62 106.71,-82.85"/>
</g>
<!-- x[1]&#45;&gt;h1[1] -->
<g id="edge5" class="edge">
<title>x[1]&#45;&gt;h1[1]</title>
<path fill="none" stroke="black" d="M51.69,-146.95C64.77,-150.83 83.26,-156.32 98.52,-160.85"/>
<polygon fill="black" stroke="black" points="97.38,-164.16 107.96,-163.65 99.37,-157.45 97.38,-164.16"/>
</g>
<!-- x[1]&#45;&gt;h1[2] -->
<g id="edge6" class="edge">
<title>x[1]&#45;&gt;h1[2]</title>
<path fill="none" stroke="black" d="M51.69,-137.05C64.77,-133.17 83.26,-127.68 98.52,-123.15"/>
<polygon fill="black" stroke="black" points="99.37,-126.55 107.96,-120.35 97.38,-119.84 99.37,-126.55"/>
</g>
<!-- x[2] -->
<g id="node3" class="node">
<title>x[2]</title>
<ellipse fill="none" stroke="black" cx="34" cy="-88" rx="18" ry="18"/>
<text text-anchor="middle" x="34" y="-84.3" font-family="Times,serif" font-size="14.00">x[2]</text>
</g>
<!-- x[2]&#45;&gt;h1[0] -->
<g id="edge7" class="edge">
<title>x[2]&#45;&gt;h1[0]</title>
<path fill="none" stroke="black" d="M51.69,-83.05C64.77,-79.17 83.26,-73.68 98.52,-69.15"/>
<polygon fill="black" stroke="black" points="99.37,-72.55 107.96,-66.35 97.38,-65.84 99.37,-72.55"/>
</g>
<!-- x[2]&#45;&gt;h1[1] -->
<g id="edge8" class="edge">
<title>x[2]&#45;&gt;h1[1]</title>
<path fill="none" stroke="black" d="M48.04,-99.61C62.77,-112.72 86.97,-134.26 104.51,-149.87"/>
<polygon fill="black" stroke="black" points="102.06,-152.38 111.86,-156.41 106.71,-147.15 102.06,-152.38"/>
</g>
<!-- x[2]&#45;&gt;h1[2] -->
<g id="edge9" class="edge">
<title>x[2]&#45;&gt;h1[2]</title>
<path fill="none" stroke="black" d="M51.69,-92.95C64.77,-96.83 83.26,-102.32 98.52,-106.85"/>
<polygon fill="black" stroke="black" points="97.38,-110.16 107.96,-109.65 99.37,-103.45 97.38,-110.16"/>
</g>
<!-- x[3] -->
<g id="node4" class="node">
<title>x[3]</title>
<ellipse fill="none" stroke="black" cx="34" cy="-34" rx="18" ry="18"/>
<text text-anchor="middle" x="34" y="-30.3" font-family="Times,serif" font-size="14.00">x[3]</text>
</g>
<!-- x[3]&#45;&gt;h1[0] -->
<g id="edge10" class="edge">
<title>x[3]&#45;&gt;h1[0]</title>
<path fill="none" stroke="black" d="M51.69,-38.95C64.77,-42.83 83.26,-48.32 98.52,-52.85"/>
<polygon fill="black" stroke="black" points="97.38,-56.16 107.96,-55.65 99.37,-49.45 97.38,-56.16"/>
</g>
<!-- x[3]&#45;&gt;h1[1] -->
<g id="edge11" class="edge">
<title>x[3]&#45;&gt;h1[1]</title>
<path fill="none" stroke="black" d="M44.91,-48.7C60.5,-71.83 90.91,-116.95 109.74,-144.87"/>
<polygon fill="black" stroke="black" points="106.76,-146.72 115.25,-153.06 112.57,-142.81 106.76,-146.72"/>
</g>
<!-- x[3]&#45;&gt;h1[2] -->
<g id="edge12" class="edge">
<title>x[3]&#45;&gt;h1[2]</title>
<path fill="none" stroke="black" d="M48.04,-45.61C62.77,-58.72 86.97,-80.26 104.51,-95.87"/>
<polygon fill="black" stroke="black" points="102.06,-98.38 111.86,-102.41 106.71,-93.15 102.06,-98.38"/>
</g>
<!-- h2[0] -->
<g id="node8" class="node">
<title>h2[0]</title>
<ellipse fill="none" stroke="black" cx="242" cy="-61" rx="18" ry="18"/>
<text text-anchor="middle" x="242" y="-57.3" font-family="Times,serif" font-size="14.00">h2[0]</text>
</g>
<!-- h1[0]&#45;&gt;h2[0] -->
<g id="edge13" class="edge">
<title>h1[0]&#45;&gt;h2[0]</title>
<path fill="none" stroke="black" d="M145.16,-61C163,-61 191.22,-61 212.43,-61"/>
<polygon fill="black" stroke="black" points="212.16,-64.5 222.16,-61 212.16,-57.5 212.16,-64.5"/>
</g>
<!-- h2[1] -->
<g id="node9" class="node">
<title>h2[1]</title>
<ellipse fill="none" stroke="black" cx="242" cy="-169" rx="18" ry="18"/>
<text text-anchor="middle" x="242" y="-165.3" font-family="Times,serif" font-size="14.00">h2[1]</text>
</g>
<!-- h1[0]&#45;&gt;h2[1] -->
<g id="edge14" class="edge">
<title>h1[0]&#45;&gt;h2[1]</title>
<path fill="none" stroke="black" d="M140.52,-72.97C159.79,-91.38 196.89,-126.84 220.22,-149.14"/>
<polygon fill="black" stroke="black" points="217.68,-151.55 227.33,-155.93 222.51,-146.49 217.68,-151.55"/>
</g>
<!-- h2[2] -->
<g id="node10" class="node">
<title>h2[2]</title>
<ellipse fill="none" stroke="black" cx="242" cy="-115" rx="18" ry="18"/>
<text text-anchor="middle" x="242" y="-111.3" font-family="Times,serif" font-size="14.00">h2[2]</text>
</g>
<!-- h1[0]&#45;&gt;h2[2] -->
<g id="edge15" class="edge">
<title>h1[0]&#45;&gt;h2[2]</title>
<path fill="none" stroke="black" d="M143.71,-68.51C162.18,-77.33 193.1,-92.11 215.12,-102.63"/>
<polygon fill="black" stroke="black" points="213.52,-105.75 224.06,-106.9 216.54,-99.43 213.52,-105.75"/>
</g>
<!-- h1[1]&#45;&gt;h2[0] -->
<g id="edge16" class="edge">
<title>h1[1]&#45;&gt;h2[0]</title>
<path fill="none" stroke="black" d="M140.52,-157.03C159.79,-138.62 196.89,-103.16 220.22,-80.86"/>
<polygon fill="black" stroke="black" points="222.51,-83.51 227.33,-74.07 217.68,-78.45 222.51,-83.51"/>
</g>
<!-- h1[1]&#45;&gt;h2[1] -->
<g id="edge17" class="edge">
<title>h1[1]&#45;&gt;h2[1]</title>
<path fill="none" stroke="black" d="M145.16,-169C163,-169 191.22,-169 212.43,-169"/>
<polygon fill="black" stroke="black" points="212.16,-172.5 222.16,-169 212.16,-165.5 212.16,-172.5"/>
</g>
<!-- h1[1]&#45;&gt;h2[2] -->
<g id="edge18" class="edge">
<title>h1[1]&#45;&gt;h2[2]</title>
<path fill="none" stroke="black" d="M143.71,-161.49C162.18,-152.67 193.1,-137.89 215.12,-127.37"/>
<polygon fill="black" stroke="black" points="216.54,-130.57 224.06,-123.1 213.52,-124.25 216.54,-130.57"/>
</g>
<!-- h1[2]&#45;&gt;h2[0] -->
<g id="edge19" class="edge">
<title>h1[2]&#45;&gt;h2[0]</title>
<path fill="none" stroke="black" d="M143.71,-107.49C162.18,-98.67 193.1,-83.89 215.12,-73.37"/>
<polygon fill="black" stroke="black" points="216.54,-76.57 224.06,-69.1 213.52,-70.25 216.54,-76.57"/>
</g>
<!-- h1[2]&#45;&gt;h2[1] -->
<g id="edge20" class="edge">
<title>h1[2]&#45;&gt;h2[1]</title>
<path fill="none" stroke="black" d="M143.71,-122.51C162.18,-131.33 193.1,-146.11 215.12,-156.63"/>
<polygon fill="black" stroke="black" points="213.52,-159.75 224.06,-160.9 216.54,-153.43 213.52,-159.75"/>
</g>
<!-- h1[2]&#45;&gt;h2[2] -->
<g id="edge21" class="edge">
<title>h1[2]&#45;&gt;h2[2]</title>
<path fill="none" stroke="black" d="M145.16,-115C163,-115 191.22,-115 212.43,-115"/>
<polygon fill="black" stroke="black" points="212.16,-118.5 222.16,-115 212.16,-111.5 212.16,-118.5"/>
</g>
<!-- y -->
<g id="node11" class="node">
<title>y</title>
<ellipse fill="none" stroke="black" cx="336" cy="-115" rx="18" ry="18"/>
<text text-anchor="middle" x="336" y="-111.3" font-family="Times,serif" font-size="14.00">y</text>
</g>
<!-- h2[0]&#45;&gt;y -->
<g id="edge22" class="edge">
<title>h2[0]&#45;&gt;y</title>
<path fill="none" stroke="black" d="M258.19,-69.92C272.39,-78.25 293.84,-90.84 310.47,-100.6"/>
<polygon fill="black" stroke="black" points="308.39,-103.44 318.79,-105.48 311.93,-97.4 308.39,-103.44"/>
</g>
<!-- h2[1]&#45;&gt;y -->
<g id="edge23" class="edge">
<title>h2[1]&#45;&gt;y</title>
<path fill="none" stroke="black" d="M258.19,-160.08C272.39,-151.75 293.84,-139.16 310.47,-129.4"/>
<polygon fill="black" stroke="black" points="311.93,-132.6 318.79,-124.52 308.39,-126.56 311.93,-132.6"/>
</g>
<!-- h2[2]&#45;&gt;y -->
<g id="edge24" class="edge">
<title>h2[2]&#45;&gt;y</title>
<path fill="none" stroke="black" d="M260.3,-115C273.28,-115 291.34,-115 306.44,-115"/>
<polygon fill="black" stroke="black" points="306.26,-118.5 316.26,-115 306.26,-111.5 306.26,-118.5"/>
</g>
</g>
</svg>