<?xml version="1.0" encoding="UTF-8" standalone="no"?>
<!DOCTYPE svg PUBLIC "-//W3C//DTD SVG 1.1//EN"
 "http://www.w3.org/Graphics/SVG/1.1/DTD/svg11.dtd">
<!-- Generated by graphviz version 7.1.0 (0)
 -->
<!-- Pages: 1 -->
<svg width="174pt" height="261pt"
 viewBox="0.00 0.00 174.00 261.00" xmlns="http://www.w3.org/2000/svg" xmlns:xlink="http://www.w3.org/1999/xlink">
<g id="graph0" class="graph" transform="scale(1 1) rotate(0) translate(4 257)">
<polygon fill="white" stroke="none" points="-4,4 -4,-257 170,-257 170,4 -4,4"/>
<g id="clust1" class="cluster">
<title>cluster_0</title>
<polygon fill="none" stroke="white" points="8,-8 8,-245 60,-245 60,-8 8,-8"/>
<text text-anchor="middle" x="34" y="-229.8" font-family="Times,serif" font-size="14.00">inputs</text>
</g>
<g id="clust2" class="cluster">
<title>cluster_2</title>
<polygon fill="none" stroke="white" points="106,-89 106,-164 158,-164 158,-89 106,-89"/>
<text text-anchor="middle" x="132" y="-148.8" font-family="Times,serif" font-size="14.00">output</text>
</g>
<!-- x[0] -->
<g id="node1" class="node">
<title>x[0]</title>
<ellipse fill="none" stroke="black" cx="34" cy="-196" rx="18" ry="18"/>
<text text-anchor="middle" x="34" y="-192.3" font-family="Times,serif" font-size="14.00">x[0]</text>
</g>
<!-- y -->
<g id="node5" class="node">
<title>y</title>
<ellipse fill="none" stroke="black" cx="132" cy="-115" rx="18" ry="18"/>
<text text-anchor="middle" x="132" y="-111.3" font-family="Times,serif" font-size="14.00">y</text>
</g>
<!-- x[0]&#45;&gt;y -->
<g id="edge1" class="edge">
<title>x[0]&#45;&gt;y</title>
<path fill="none" stroke="black" d="M48.35,-184.74C63.95,-171.57 90.01,-149.58 108.7,-133.82"/>
<polygon fill="black" stroke="black" points="110.91,-136.53 116.3,-127.4 106.4,-131.18 110.91,-136.53"/>
<text text-anchor="middle" x="83" y="-171.8" font-family="Times,serif" font-size="14.00">w[0]</text>
</g>
<!-- x[1] -->
<g id="node2" class="node">
<title>x[1]</title>
<ellipse fill="none" stroke="black" cx="34" cy="-142" rx="18" ry="18"/>
<text text-anchor="middle" x="34" y="-138.3" font-family="Times,serif" font-size="14.00">x[1]</text>
</g>
<!-- x[1]&#45;&gt;y -->
<g id="edge2" class="edge">
<title>x[1]&#45;&gt;y</title>
<path fill="none" stroke="black" d="M51.72,-137.3C65.95,-133.3 86.68,-127.47 103.37,-122.77"/>
<polygon fill="black" stroke="black" points="104.01,-126.23 112.69,-120.15 102.12,-119.49 104.01,-126.23"/>
<text text-anchor="middle" x="83" y="-134.8" font-family="Times,serif" font-size="14.00">w[1]</text>
</g>
<!-- x[2] -->
<g id="node3" class="node">
<title>x[2]</title>
<ellipse fill="none" stroke="black" cx="34" cy="-88" rx="18" ry="18"/>
<text text-anchor="middle" x="34" y="-84.3" font-family="Times,serif" font-size="14.00">x[2]</text>
</g>
<!-- x[2]&#45;&gt;y -->
<g id="edge3" class="edge">
<title>x[2]&#45;&gt;y</title>
<path fill="none" stroke="black" d="M51.72,-92.7C65.95,-96.7 86.68,-102.53 103.37,-107.23"/>
<polygon fill="black" stroke="black" points="102.12,-110.51 112.69,-109.85 104.01,-103.77 102.12,-110.51"/>
<text text-anchor="middle" x="83" y="-107.8" font-family="Times,serif" font-size="14.00">w[2]</text>
</g>
<!-- x[3] -->
<g id="node4" class="node">
<title>x[3]</title>
<ellipse fill="none" stroke="black" cx="34" cy="-34" rx="18" ry="18"/>
<text text-anchor="middle" x="34" y="-30.3" font-family="Times,serif" font-size="14.00">x[3]</text>
</g>
<!-- x[3]&#45;&gt;y -->
<g id="edge4" class="edge">
<title>x[3]&#45;&gt;y</title>
<path fill="none" stroke="black" d="M48.35,-45.26C63.95,-58.43 90.01,-80.42 108.7,-96.18"/>
<polygon fill="black" stroke="black" points="106.4,-98.82 116.3,-102.6 110.91,-93.47 106.4,-98.82"/>
<text text-anchor="middle" x="83" y="-82.8" font-family="Times,serif" font-size="14.00">w[3]</text>
</g>
</g>
</svg>