<?xml version="1.0" encoding="UTF-8" standalone="no"?>
<!DOCTYPE svg PUBLIC "-//W3C//DTD SVG 1.1//EN"
 "http://www.w3.org/Graphics/SVG/1.1/DTD/svg11.dtd">
<!-- Generated by graphviz version 8.1.0 (20230707.0739)
 -->
<!-- Pages: 1 -->
<svg width="251pt" height="263pt"
 viewBox="0.00 0.00 251.00 263.00" xmlns="http://www.w3.org/2000/svg" xmlns:xlink="http://www.w3.org/1999/xlink">
<g id="graph0" class="graph" transform="scale(1 1) rotate(0) translate(4 259)">
<polygon fill="white" stroke="none" points="-4,4 -4,-259 247,-259 247,4 -4,4"/>
<g id="clust1" class="cluster">
<title>cluster_0</title>
<polygon fill="none" stroke="white" points="8,-8 8,-247 60,-247 60,-8 8,-8"/>
<text text-anchor="middle" x="34" y="-229.7" font-family="Times,serif" font-size="14.00">inputs</text>
</g>
<g id="clust2" class="cluster">
<title>cluster_1</title>
<polygon fill="none" stroke="white" points="80,-35 80,-220 163,-220 163,-35 80,-35"/>
<text text-anchor="middle" x="121.5" y="-202.7" font-family="Times,serif" font-size="14.00">hidden layer</text>
</g>
<g id="clust3" class="cluster">
<title>cluster_2</title>
<polygon fill="none" stroke="white" points="183,-89 183,-166 235,-166 235,-89 183,-89"/>
<text text-anchor="middle" x="209" y="-148.7" font-family="Times,serif" font-size="14.00">output</text>
</g>
<!-- x[0] -->
<g id="node1" class="node">
<title>x[0]</title>
<ellipse fill="none" stroke="black" cx="34" cy="-196" rx="18" ry="18"/>
<text text-anchor="middle" x="34" y="-190.95" font-family="Times,serif" font-size="14.00">x[0]</text>
</g>
<!-- h0 -->
<g id="node5" class="node">
<title>h0</title>
<ellipse fill="none" stroke="black" cx="121" cy="-61" rx="18" ry="18"/>
<text text-anchor="middle" x="121" y="-55.95" font-family="Times,serif" font-size="14.00">h[0]</text>
</g>
<!-- x[0]&#45;&gt;h0 -->
<g id="edge1" class="edge">
<title>x[0]&#45;&gt;h0</title>
<path fill="none" stroke="black" d="M44.42,-181.04C59.04,-157.82 87.31,-112.92 104.83,-85.1"/>
<polygon fill="black" stroke="black" points="108.17,-87.36 110.54,-77.03 102.25,-83.63 108.17,-87.36"/>
</g>
<!-- h1 -->
<g id="node6" class="node">
<title>h1</title>
<ellipse fill="none" stroke="black" cx="121" cy="-169" rx="18" ry="18"/>
<text text-anchor="middle" x="121" y="-163.95" font-family="Times,serif" font-size="14.00">h[1]</text>
</g>
<!-- x[0]&#45;&gt;h1 -->
<g id="edge2" class="edge">
<title>x[0]&#45;&gt;h1</title>
<path fill="none" stroke="black" d="M51.39,-190.79C63.19,-187.05 79.37,-181.9 93.06,-177.56"/>
<polygon fill="black" stroke="black" points="93.9,-180.65 102.37,-174.28 91.78,-173.97 93.9,-180.65"/>
</g>
<!-- h2 -->
<g id="node7" class="node">
<title>h2</title>
<ellipse fill="none" stroke="black" cx="121" cy="-115" rx="18" ry="18"/>
<text text-anchor="middle" x="121" y="-109.95" font-family="Times,serif" font-size="14.00">h[2]</text>
</g>
<!-- x[0]&#45;&gt;h2 -->
<g id="edge3" class="edge">
<title>x[0]&#45;&gt;h2</title>
<path fill="none" stroke="black" d="M47.54,-184.05C61.23,-171.01 83.34,-149.93 99.55,-134.49"/>
<polygon fill="black" stroke="black" points="101.58,-137.43 106.41,-128 96.75,-132.37 101.58,-137.43"/>
</g>
<!-- x[1] -->
<g id="node2" class="node">
<title>x[1]</title>
<ellipse fill="none" stroke="black" cx="34" cy="-142" rx="18" ry="18"/>
<text text-anchor="middle" x="34" y="-136.95" font-family="Times,serif" font-size="14.00">x[1]</text>
</g>
<!-- x[1]&#45;&gt;h0 -->
<g id="edge4" class="edge">
<title>x[1]&#45;&gt;h0</title>
<path fill="none" stroke="black" d="M47.54,-130.05C61.23,-117.01 83.34,-95.93 99.55,-80.49"/>
<polygon fill="black" stroke="black" points="101.58,-83.43 106.41,-74 96.75,-78.37 101.58,-83.43"/>
</g>
<!-- x[1]&#45;&gt;h1 -->
<g id="edge5" class="edge">
<title>x[1]&#45;&gt;h1</title>
<path fill="none" stroke="black" d="M51.39,-147.21C63.19,-150.95 79.37,-156.1 93.06,-160.44"/>
<polygon fill="black" stroke="black" points="91.78,-164.03 102.37,-163.72 93.9,-157.35 91.78,-164.03"/>
</g>
<!-- x[1]&#45;&gt;h2 -->
<g id="edge6" class="edge">
<title>x[1]&#45;&gt;h2</title>
<path fill="none" stroke="black" d="M51.39,-136.79C63.19,-133.05 79.37,-127.9 93.06,-123.56"/>
<polygon fill="black" stroke="black" points="93.9,-126.65 102.37,-120.28 91.78,-119.97 93.9,-126.65"/>
</g>
<!-- x[2] -->
<g id="node3" class="node">
<title>x[2]</title>
<ellipse fill="none" stroke="black" cx="34" cy="-88" rx="18" ry="18"/>
<text text-anchor="middle" x="34" y="-82.95" font-family="Times,serif" font-size="14.00">x[2]</text>
</g>
<!-- x[2]&#45;&gt;h0 -->
<g id="edge7" class="edge">
<title>x[2]&#45;&gt;h0</title>
<path fill="none" stroke="black" d="M51.39,-82.79C63.19,-79.05 79.37,-73.9 93.06,-69.56"/>
<polygon fill="black" stroke="black" points="93.9,-72.65 102.37,-66.28 91.78,-65.97 93.9,-72.65"/>
</g>
<!-- x[2]&#45;&gt;h1 -->
<g id="edge8" class="edge">
<title>x[2]&#45;&gt;h1</title>
<path fill="none" stroke="black" d="M47.54,-99.95C61.23,-112.99 83.34,-134.07 99.55,-149.51"/>
<polygon fill="black" stroke="black" points="96.75,-151.63 106.41,-156 101.58,-146.57 96.75,-151.63"/>
</g>
<!-- x[2]&#45;&gt;h2 -->
<g id="edge9" class="edge">
<title>x[2]&#45;&gt;h2</title>
<path fill="none" stroke="black" d="M51.39,-93.21C63.19,-96.95 79.37,-102.1 93.06,-106.44"/>
<polygon fill="black" stroke="black" points="91.78,-110.03 102.37,-109.72 93.9,-103.35 91.78,-110.03"/>
</g>
<!-- x[3] -->
<g id="node4" class="node">
<title>x[3]</title>
<ellipse fill="none" stroke="black" cx="34" cy="-34" rx="18" ry="18"/>
<text text-anchor="middle" x="34" y="-28.95" font-family="Times,serif" font-size="14.00">x[3]</text>
</g>
<!-- x[3]&#45;&gt;h0 -->
<g id="edge10" class="edge">
<title>x[3]&#45;&gt;h0</title>
<path fill="none" stroke="black" d="M51.39,-39.21C63.19,-42.95 79.37,-48.1 93.06,-52.44"/>
<polygon fill="black" stroke="black" points="91.78,-56.03 102.37,-55.72 93.9,-49.35 91.78,-56.03"/>
</g>
<!-- x[3]&#45;&gt;h1 -->
<g id="edge11" class="edge">
<title>x[3]&#45;&gt;h1</title>
<path fill="none" stroke="black" d="M44.42,-48.96C59.04,-72.18 87.31,-117.08 104.83,-144.9"/>
<polygon fill="black" stroke="black" points="102.25,-146.37 110.54,-152.97 108.17,-142.64 102.25,-146.37"/>
</g>
<!-- x[3]&#45;&gt;h2 -->
<g id="edge12" class="edge">
<title>x[3]&#45;&gt;h2</title>
<path fill="none" stroke="black" d="M47.54,-45.95C61.23,-58.99 83.34,-80.07 99.55,-95.51"/>
<polygon fill="black" stroke="black" points="96.75,-97.63 106.41,-102 101.58,-92.57 96.75,-97.63"/>
</g>
<!-- y -->
<g id="node8" class="node">
<title>y</title>
<ellipse fill="none" stroke="black" cx="209" cy="-115" rx="18" ry="18"/>
<text text-anchor="middle" x="209" y="-109.95" font-family="Times,serif" font-size="14.00">y</text>
</g>
<!-- h0&#45;&gt;y -->
<g id="edge13" class="edge">
<title>h0&#45;&gt;y</title>
<path fill="none" stroke="black" d="M136.59,-70.16C149.68,-78.38 169.15,-90.6 184.45,-100.21"/>
<polygon fill="black" stroke="black" points="182.01,-103.44 192.34,-105.79 185.73,-97.51 182.01,-103.44"/>
</g>
<!-- h1&#45;&gt;y -->
<g id="edge14" class="edge">
<title>h1&#45;&gt;y</title>
<path fill="none" stroke="black" d="M136.59,-159.84C149.68,-151.62 169.15,-139.4 184.45,-129.79"/>
<polygon fill="black" stroke="black" points="185.73,-132.49 192.34,-124.21 182.01,-126.56 185.73,-132.49"/>
</g>
<!-- h2&#45;&gt;y -->
<g id="edge15" class="edge">
<title>h2&#45;&gt;y</title>
<path fill="none" stroke="black" d="M139.4,-115C150.94,-115 166.35,-115 179.64,-115"/>
<polygon fill="black" stroke="black" points="179.62,-118.5 189.62,-115 179.62,-111.5 179.62,-118.5"/>
</g>
</g>
</svg>