<?xml version="1.0" encoding="UTF-8" standalone="no"?>
<!DOCTYPE svg PUBLIC "-//W3C//DTD SVG 1.1//EN"
 "http://www.w3.org/Graphics/SVG/1.1/DTD/svg11.dtd">
<!-- Generated by graphviz version 7.1.0 (0)
 -->
<!-- Pages: 1 -->
<svg width="252pt" height="261pt"
 viewBox="0.00 0.00 252.00 261.00" xmlns="http://www.w3.org/2000/svg" xmlns:xlink="http://www.w3.org/1999/xlink">
<g id="graph0" class="graph" transform="scale(1 1) rotate(0) translate(4 257)">
<polygon fill="white" stroke="none" points="-4,4 -4,-257 248,-257 248,4 -4,4"/>
<g id="clust1" class="cluster">
<title>cluster_0</title>
<polygon fill="none" stroke="white" points="8,-8 8,-245 60,-245 60,-8 8,-8"/>
<text text-anchor="middle" x="34" y="-229.8" font-family="Times,serif" font-size="14.00">inputs</text>
</g>
<g id="clust2" class="cluster">
<title>cluster_1</title>
<polygon fill="none" stroke="white" points="80,-35 80,-218 164,-218 164,-35 80,-35"/>
<text text-anchor="middle" x="122" y="-202.8" font-family="Times,serif" font-size="14.00">hidden layer</text>
</g>
<g id="clust3" class="cluster">
<title>cluster_2</title>
<polygon fill="none" stroke="white" points="184,-89 184,-164 236,-164 236,-89 184,-89"/>
<text text-anchor="middle" x="210" y="-148.8" font-family="Times,serif" font-size="14.00">output</text>
</g>
<!-- x[0] -->
<g id="node1" class="node">
<title>x[0]</title>
<ellipse fill="none" stroke="black" cx="34" cy="-196" rx="18" ry="18"/>
<text text-anchor="middle" x="34" y="-192.3" font-family="Times,serif" font-size="14.00">x[0]</text>
</g>
<!-- h0 -->
<g id="node5" class="node">
<title>h0</title>
<ellipse fill="none" stroke="black" cx="122" cy="-61" rx="18" ry="18"/>
<text text-anchor="middle" x="122" y="-57.3" font-family="Times,serif" font-size="14.00">h[0]</text>
</g>
<!-- x[0]&#45;&gt;h0 -->
<g id="edge1" class="edge">
<title>x[0]&#45;&gt;h0</title>
<path fill="none" stroke="black" d="M44.53,-181.04C59.25,-157.93 87.68,-113.31 105.42,-85.46"/>
<polygon fill="black" stroke="black" points="108.19,-87.62 110.61,-77.31 102.29,-83.86 108.19,-87.62"/>
</g>
<!-- h1 -->
<g id="node6" class="node">
<title>h1</title>
<ellipse fill="none" stroke="black" cx="122" cy="-169" rx="18" ry="18"/>
<text text-anchor="middle" x="122" y="-165.3" font-family="Times,serif" font-size="14.00">h[1]</text>
</g>
<!-- x[0]&#45;&gt;h1 -->
<g id="edge2" class="edge">
<title>x[0]&#45;&gt;h1</title>
<path fill="none" stroke="black" d="M51.58,-190.79C63.48,-187.06 79.78,-181.94 93.6,-177.6"/>
<polygon fill="black" stroke="black" points="94.53,-180.98 103.03,-174.64 92.44,-174.3 94.53,-180.98"/>
</g>
<!-- h2 -->
<g id="node7" class="node">
<title>h2</title>
<ellipse fill="none" stroke="black" cx="122" cy="-115" rx="18" ry="18"/>
<text text-anchor="middle" x="122" y="-111.3" font-family="Times,serif" font-size="14.00">h[2]</text>
</g>
<!-- x[0]&#45;&gt;h2 -->
<g id="edge3" class="edge">
<title>x[0]&#45;&gt;h2</title>
<path fill="none" stroke="black" d="M47.69,-184.05C61.54,-171.01 83.91,-149.93 100.31,-134.49"/>
<polygon fill="black" stroke="black" points="102.28,-137.44 107.16,-128.04 97.48,-132.35 102.28,-137.44"/>
</g>
<!-- x[1] -->
<g id="node2" class="node">
<title>x[1]</title>
<ellipse fill="none" stroke="black" cx="34" cy="-142" rx="18" ry="18"/>
<text text-anchor="middle" x="34" y="-138.3" font-family="Times,serif" font-size="14.00">x[1]</text>
</g>
<!-- x[1]&#45;&gt;h0 -->
<g id="edge4" class="edge">
<title>x[1]&#45;&gt;h0</title>
<path fill="none" stroke="black" d="M47.69,-130.05C61.54,-117.01 83.91,-95.93 100.31,-80.49"/>
<polygon fill="black" stroke="black" points="102.28,-83.44 107.16,-74.04 97.48,-78.35 102.28,-83.44"/>
</g>
<!-- x[1]&#45;&gt;h1 -->
<g id="edge5" class="edge">
<title>x[1]&#45;&gt;h1</title>
<path fill="none" stroke="black" d="M51.58,-147.21C63.48,-150.94 79.78,-156.06 93.6,-160.4"/>
<polygon fill="black" stroke="black" points="92.44,-163.7 103.03,-163.36 94.53,-157.02 92.44,-163.7"/>
</g>
<!-- x[1]&#45;&gt;h2 -->
<g id="edge6" class="edge">
<title>x[1]&#45;&gt;h2</title>
<path fill="none" stroke="black" d="M51.58,-136.79C63.48,-133.06 79.78,-127.94 93.6,-123.6"/>
<polygon fill="black" stroke="black" points="94.53,-126.98 103.03,-120.64 92.44,-120.3 94.53,-126.98"/>
</g>
<!-- x[2] -->
<g id="node3" class="node">
<title>x[2]</title>
<ellipse fill="none" stroke="black" cx="34" cy="-88" rx="18" ry="18"/>
<text text-anchor="middle" x="34" y="-84.3" font-family="Times,serif" font-size="14.00">x[2]</text>
</g>
<!-- x[2]&#45;&gt;h0 -->
<g id="edge7" class="edge">
<title>x[2]&#45;&gt;h0</title>
<path fill="none" stroke="black" d="M51.58,-82.79C63.48,-79.06 79.78,-73.94 93.6,-69.6"/>
<polygon fill="black" stroke="black" points="94.53,-72.98 103.03,-66.64 92.44,-66.3 94.53,-72.98"/>
</g>
<!-- x[2]&#45;&gt;h1 -->
<g id="edge8" class="edge">
<title>x[2]&#45;&gt;h1</title>
<path fill="none" stroke="black" d="M47.69,-99.95C61.54,-112.99 83.91,-134.07 100.31,-149.51"/>
<polygon fill="black" stroke="black" points="97.48,-151.65 107.16,-155.96 102.28,-146.56 97.48,-151.65"/>
</g>
<!-- x[2]&#45;&gt;h2 -->
<g id="edge9" class="edge">
<title>x[2]&#45;&gt;h2</title>
<path fill="none" stroke="black" d="M51.58,-93.21C63.48,-96.94 79.78,-102.06 93.6,-106.4"/>
<polygon fill="black" stroke="black" points="92.44,-109.7 103.03,-109.36 94.53,-103.02 92.44,-109.7"/>
</g>
<!-- x[3] -->
<g id="node4" class="node">
<title>x[3]</title>
<ellipse fill="none" stroke="black" cx="34" cy="-34" rx="18" ry="18"/>
<text text-anchor="middle" x="34" y="-30.3" font-family="Times,serif" font-size="14.00">x[3]</text>
</g>
<!-- x[3]&#45;&gt;h0 -->
<g id="edge10" class="edge">
<title>x[3]&#45;&gt;h0</title>
<path fill="none" stroke="black" d="M51.58,-39.21C63.48,-42.94 79.78,-48.06 93.6,-52.4"/>
<polygon fill="black" stroke="black" points="92.44,-55.7 103.03,-55.36 94.53,-49.02 92.44,-55.7"/>
</g>
<!-- x[3]&#45;&gt;h1 -->
<g id="edge11" class="edge">
<title>x[3]&#45;&gt;h1</title>
<path fill="none" stroke="black" d="M44.53,-48.96C59.25,-72.07 87.68,-116.69 105.42,-144.54"/>
<polygon fill="black" stroke="black" points="102.29,-146.14 110.61,-152.69 108.19,-142.38 102.29,-146.14"/>
</g>
<!-- x[3]&#45;&gt;h2 -->
<g id="edge12" class="edge">
<title>x[3]&#45;&gt;h2</title>
<path fill="none" stroke="black" d="M47.69,-45.95C61.54,-58.99 83.91,-80.07 100.31,-95.51"/>
<polygon fill="black" stroke="black" points="97.48,-97.65 107.16,-101.96 102.28,-92.56 97.48,-97.65"/>
</g>
<!-- y -->
<g id="node8" class="node">
<title>y</title>
<ellipse fill="none" stroke="black" cx="210" cy="-115" rx="18" ry="18"/>
<text text-anchor="middle" x="210" y="-111.3" font-family="Times,serif" font-size="14.00">y</text>
</g>
<!-- h0&#45;&gt;y -->
<g id="edge13" class="edge">
<title>h0&#45;&gt;y</title>
<path fill="none" stroke="black" d="M137.59,-70.16C150.56,-78.31 169.78,-90.37 185.01,-99.94"/>
<polygon fill="black" stroke="black" points="182.73,-102.64 193.06,-104.99 186.45,-96.71 182.73,-102.64"/>
</g>
<!-- h1&#45;&gt;y -->
<g id="edge14" class="edge">
<title>h1&#45;&gt;y</title>
<path fill="none" stroke="black" d="M137.59,-159.84C150.56,-151.69 169.78,-139.63 185.01,-130.06"/>
<polygon fill="black" stroke="black" points="186.45,-133.29 193.06,-125.01 182.73,-127.36 186.45,-133.29"/>
</g>
<!-- h2&#45;&gt;y -->
<g id="edge15" class="edge">
<title>h2&#45;&gt;y</title>
<path fill="none" stroke="black" d="M140.4,-115C151.83,-115 167.04,-115 180.24,-115"/>
<polygon fill="black" stroke="black" points="180.11,-118.5 190.11,-115 180.11,-111.5 180.11,-118.5"/>
</g>
</g>
</svg>