<?xml version="1.0" encoding="UTF-8" standalone="no"?>
<!DOCTYPE svg PUBLIC "-//W3C//DTD SVG 1.1//EN"
 "http://www.w3.org/Graphics/SVG/1.1/DTD/svg11.dtd">
<!-- Generated by graphviz version 8.1.0 (20230707.0739)
 -->
<!-- Pages: 1 -->
<svg width="376pt" height="263pt"
 viewBox="0.00 0.00 376.00 263.00" xmlns="http://www.w3.org/2000/svg" xmlns:xlink="http://www.w3.org/1999/xlink">
<g id="graph0" class="graph" transform="scale(1 1) rotate(0) translate(4 259)">
<polygon fill="white" stroke="none" points="-4,4 -4,-259 372,-259 372,4 -4,4"/>
<g id="clust1" class="cluster">
<title>cluster_0</title>
<polygon fill="none" stroke="white" points="8,-8 8,-247 60,-247 60,-8 8,-8"/>
<text text-anchor="middle" x="34" y="-229.7" font-family="Times,serif" font-size="14.00">inputs</text>
</g>
<g id="clust2" class="cluster">
<title>cluster_1</title>
<polygon fill="none" stroke="white" points="80,-35 80,-220 174,-220 174,-35 80,-35"/>
<text text-anchor="middle" x="127" y="-202.7" font-family="Times,serif" font-size="14.00">hidden layer 1</text>
</g>
<g id="clust3" class="cluster">
<title>cluster_2</title>
<polygon fill="none" stroke="white" points="194,-35 194,-220 288,-220 288,-35 194,-35"/>
<text text-anchor="middle" x="241" y="-202.7" font-family="Times,serif" font-size="14.00">hidden layer 2</text>
</g>
<g id="clust4" class="cluster">
<title>cluster_3</title>
<polygon fill="none" stroke="white" points="308,-89 308,-166 360,-166 360,-89 308,-89"/>
<text text-anchor="middle" x="334" y="-148.7" font-family="Times,serif" font-size="14.00">output</text>
</g>
<!-- x[0] -->
<g id="node1" class="node">
<title>x[0]</title>
<ellipse fill="none" stroke="black" cx="34" cy="-196" rx="18" ry="18"/>
<text text-anchor="middle" x="34" y="-190.95" font-family="Times,serif" font-size="14.00">x[0]</text>
</g>
<!-- h1[0] -->
<g id="node5" class="node">
<title>h1[0]</title>
<ellipse fill="none" stroke="black" cx="127" cy="-61" rx="18" ry="18"/>
<text text-anchor="middle" x="127" y="-55.95" font-family="Times,serif" font-size="14.00">h1[0]</text>
</g>
<!-- x[0]&#45;&gt;h1[0] -->
<g id="edge1" class="edge">
<title>x[0]&#45;&gt;h1[0]</title>
<path fill="none" stroke="black" d="M44.91,-181.3C60.57,-158.07 91.18,-112.66 109.98,-84.76"/>
<polygon fill="black" stroke="black" points="113.41,-86.93 116.1,-76.69 107.61,-83.02 113.41,-86.93"/>
</g>
<!-- h1[1] -->
<g id="node6" class="node">
<title>h1[1]</title>
<ellipse fill="none" stroke="black" cx="127" cy="-169" rx="18" ry="18"/>
<text text-anchor="middle" x="127" y="-163.95" font-family="Times,serif" font-size="14.00">h1[1]</text>
</g>
<!-- x[0]&#45;&gt;h1[1] -->
<g id="edge2" class="edge">
<title>x[0]&#45;&gt;h1[1]</title>
<path fill="none" stroke="black" d="M51.69,-191.05C64.9,-187.13 83.62,-181.57 98.97,-177.02"/>
<polygon fill="black" stroke="black" points="99.82,-180.12 108.42,-173.92 97.83,-173.41 99.82,-180.12"/>
</g>
<!-- h1[2] -->
<g id="node7" class="node">
<title>h1[2]</title>
<ellipse fill="none" stroke="black" cx="127" cy="-115" rx="18" ry="18"/>
<text text-anchor="middle" x="127" y="-109.95" font-family="Times,serif" font-size="14.00">h1[2]</text>
</g>
<!-- x[0]&#45;&gt;h1[2] -->
<g id="edge3" class="edge">
<title>x[0]&#45;&gt;h1[2]</title>
<path fill="none" stroke="black" d="M48.04,-184.39C62.9,-171.16 87.42,-149.34 104.99,-133.7"/>
<polygon fill="black" stroke="black" points="106.84,-136.85 111.99,-127.58 102.19,-131.62 106.84,-136.85"/>
</g>
<!-- x[1] -->
<g id="node2" class="node">
<title>x[1]</title>
<ellipse fill="none" stroke="black" cx="34" cy="-142" rx="18" ry="18"/>
<text text-anchor="middle" x="34" y="-136.95" font-family="Times,serif" font-size="14.00">x[1]</text>
</g>
<!-- x[1]&#45;&gt;h1[0] -->
<g id="edge4" class="edge">
<title>x[1]&#45;&gt;h1[0]</title>
<path fill="none" stroke="black" d="M48.04,-130.39C62.9,-117.16 87.42,-95.34 104.99,-79.7"/>
<polygon fill="black" stroke="black" points="106.84,-82.85 111.99,-73.58 102.19,-77.62 106.84,-82.85"/>
</g>
<!-- x[1]&#45;&gt;h1[1] -->
<g id="edge5" class="edge">
<title>x[1]&#45;&gt;h1[1]</title>
<path fill="none" stroke="black" d="M51.69,-146.95C64.9,-150.87 83.62,-156.43 98.97,-160.98"/>
<polygon fill="black" stroke="black" points="97.83,-164.59 108.42,-164.08 99.82,-157.88 97.83,-164.59"/>
</g>
<!-- x[1]&#45;&gt;h1[2] -->
<g id="edge6" class="edge">
<title>x[1]&#45;&gt;h1[2]</title>
<path fill="none" stroke="black" d="M51.69,-137.05C64.9,-133.13 83.62,-127.57 98.97,-123.02"/>
<polygon fill="black" stroke="black" points="99.82,-126.12 108.42,-119.92 97.83,-119.41 99.82,-126.12"/>
</g>
<!-- x[2] -->
<g id="node3" class="node">
<title>x[2]</title>
<ellipse fill="none" stroke="black" cx="34" cy="-88" rx="18" ry="18"/>
<text text-anchor="middle" x="34" y="-82.95" font-family="Times,serif" font-size="14.00">x[2]</text>
</g>
<!-- x[2]&#45;&gt;h1[0] -->
<g id="edge7" class="edge">
<title>x[2]&#45;&gt;h1[0]</title>
<path fill="none" stroke="black" d="M51.69,-83.05C64.9,-79.13 83.62,-73.57 98.97,-69.02"/>
<polygon fill="black" stroke="black" points="99.82,-72.12 108.42,-65.92 97.83,-65.41 99.82,-72.12"/>
</g>
<!-- x[2]&#45;&gt;h1[1] -->
<g id="edge8" class="edge">
<title>x[2]&#45;&gt;h1[1]</title>
<path fill="none" stroke="black" d="M48.04,-99.61C62.9,-112.84 87.42,-134.66 104.99,-150.3"/>
<polygon fill="black" stroke="black" points="102.19,-152.38 111.99,-156.42 106.84,-147.15 102.19,-152.38"/>
</g>
<!-- x[2]&#45;&gt;h1[2] -->
<g id="edge9" class="edge">
<title>x[2]&#45;&gt;h1[2]</title>
<path fill="none" stroke="black" d="M51.69,-92.95C64.9,-96.87 83.62,-102.43 98.97,-106.98"/>
<polygon fill="black" stroke="black" points="97.83,-110.59 108.42,-110.08 99.82,-103.88 97.83,-110.59"/>
</g>
<!-- x[3] -->
<g id="node4" class="node">
<title>x[3]</title>
<ellipse fill="none" stroke="black" cx="34" cy="-34" rx="18" ry="18"/>
<text text-anchor="middle" x="34" y="-28.95" font-family="Times,serif" font-size="14.00">x[3]</text>
</g>
<!-- x[3]&#45;&gt;h1[0] -->
<g id="edge10" class="edge">
<title>x[3]&#45;&gt;h1[0]</title>
<path fill="none" stroke="black" d="M51.69,-38.95C64.9,-42.87 83.62,-48.43 98.97,-52.98"/>
<polygon fill="black" stroke="black" points="97.83,-56.59 108.42,-56.08 99.82,-49.88 97.83,-56.59"/>
</g>
<!-- x[3]&#45;&gt;h1[1] -->
<g id="edge11" class="edge">
<title>x[3]&#45;&gt;h1[1]</title>
<path fill="none" stroke="black" d="M44.91,-48.7C60.57,-71.93 91.18,-117.34 109.98,-145.24"/>
<polygon fill="black" stroke="black" points="107.61,-146.98 116.1,-153.31 113.41,-143.07 107.61,-146.98"/>
</g>
<!-- x[3]&#45;&gt;h1[2] -->
<g id="edge12" class="edge">
<title>x[3]&#45;&gt;h1[2]</title>
<path fill="none" stroke="black" d="M48.04,-45.61C62.9,-58.84 87.42,-80.66 104.99,-96.3"/>
<polygon fill="black" stroke="black" points="102.19,-98.38 111.99,-102.42 106.84,-93.15 102.19,-98.38"/>
</g>
<!-- h2[0] -->
<g id="node8" class="node">
<title>h2[0]</title>
<ellipse fill="none" stroke="black" cx="241" cy="-61" rx="18" ry="18"/>
<text text-anchor="middle" x="241" y="-55.95" font-family="Times,serif" font-size="14.00">h2[0]</text>
</g>
<!-- h1[0]&#45;&gt;h2[0] -->
<g id="edge13" class="edge">
<title>h1[0]&#45;&gt;h2[0]</title>
<path fill="none" stroke="black" d="M145.01,-61C162.77,-61 190.92,-61 211.98,-61"/>
<polygon fill="black" stroke="black" points="211.83,-64.5 221.83,-61 211.83,-57.5 211.83,-64.5"/>
</g>
<!-- h2[1] -->
<g id="node9" class="node">
<title>h2[1]</title>
<ellipse fill="none" stroke="black" cx="241" cy="-169" rx="18" ry="18"/>
<text text-anchor="middle" x="241" y="-163.95" font-family="Times,serif" font-size="14.00">h2[1]</text>
</g>
<!-- h1[0]&#45;&gt;h2[1] -->
<g id="edge14" class="edge">
<title>h1[0]&#45;&gt;h2[1]</title>
<path fill="none" stroke="black" d="M140.41,-72.97C159.59,-91.46 196.6,-127.15 219.71,-149.43"/>
<polygon fill="black" stroke="black" points="216.9,-151.55 226.53,-155.98 221.76,-146.52 216.9,-151.55"/>
</g>
<!-- h2[2] -->
<g id="node10" class="node">
<title>h2[2]</title>
<ellipse fill="none" stroke="black" cx="241" cy="-115" rx="18" ry="18"/>
<text text-anchor="middle" x="241" y="-109.95" font-family="Times,serif" font-size="14.00">h2[2]</text>
</g>
<!-- h1[0]&#45;&gt;h2[2] -->
<g id="edge15" class="edge">
<title>h1[0]&#45;&gt;h2[2]</title>
<path fill="none" stroke="black" d="M143.57,-68.51C161.94,-77.36 192.74,-92.21 214.58,-102.74"/>
<polygon fill="black" stroke="black" points="212.67,-106.19 223.2,-107.38 215.71,-99.89 212.67,-106.19"/>
</g>
<!-- h1[1]&#45;&gt;h2[0] -->
<g id="edge16" class="edge">
<title>h1[1]&#45;&gt;h2[0]</title>
<path fill="none" stroke="black" d="M140.41,-157.03C159.59,-138.54 196.6,-102.85 219.71,-80.57"/>
<polygon fill="black" stroke="black" points="221.76,-83.48 226.53,-74.02 216.9,-78.45 221.76,-83.48"/>
</g>
<!-- h1[1]&#45;&gt;h2[1] -->
<g id="edge17" class="edge">
<title>h1[1]&#45;&gt;h2[1]</title>
<path fill="none" stroke="black" d="M145.01,-169C162.77,-169 190.92,-169 211.98,-169"/>
<polygon fill="black" stroke="black" points="211.83,-172.5 221.83,-169 211.83,-165.5 211.83,-172.5"/>
</g>
<!-- h1[1]&#45;&gt;h2[2] -->
<g id="edge18" class="edge">
<title>h1[1]&#45;&gt;h2[2]</title>
<path fill="none" stroke="black" d="M143.57,-161.49C161.94,-152.64 192.74,-137.79 214.58,-127.26"/>
<polygon fill="black" stroke="black" points="215.71,-130.11 223.2,-122.62 212.67,-123.81 215.71,-130.11"/>
</g>
<!-- h1[2]&#45;&gt;h2[0] -->
<g id="edge19" class="edge">
<title>h1[2]&#45;&gt;h2[0]</title>
<path fill="none" stroke="black" d="M143.57,-107.49C161.94,-98.64 192.74,-83.79 214.58,-73.26"/>
<polygon fill="black" stroke="black" points="215.71,-76.11 223.2,-68.62 212.67,-69.81 215.71,-76.11"/>
</g>
<!-- h1[2]&#45;&gt;h2[1] -->
<g id="edge20" class="edge">
<title>h1[2]&#45;&gt;h2[1]</title>
<path fill="none" stroke="black" d="M143.57,-122.51C161.94,-131.36 192.74,-146.21 214.58,-156.74"/>
<polygon fill="black" stroke="black" points="212.67,-160.19 223.2,-161.38 215.71,-153.89 212.67,-160.19"/>
</g>
<!-- h1[2]&#45;&gt;h2[2] -->
<g id="edge21" class="edge">
<title>h1[2]&#45;&gt;h2[2]</title>
<path fill="none" stroke="black" d="M145.01,-115C162.77,-115 190.92,-115 211.98,-115"/>
<polygon fill="black" stroke="black" points="211.83,-118.5 221.83,-115 211.83,-111.5 211.83,-118.5"/>
</g>
<!-- y -->
<g id="node11" class="node">
<title>y</title>
<ellipse fill="none" stroke="black" cx="334" cy="-115" rx="18" ry="18"/>
<text text-anchor="middle" x="334" y="-109.95" font-family="Times,serif" font-size="14.00">y</text>
</g>
<!-- h2[0]&#45;&gt;y -->
<g id="edge22" class="edge">
<title>h2[0]&#45;&gt;y</title>
<path fill="none" stroke="black" d="M257.03,-69.92C271.12,-78.28 292.44,-90.93 308.91,-100.7"/>
<polygon fill="black" stroke="black" points="306.56,-103.98 316.95,-106.07 310.14,-97.96 306.56,-103.98"/>
</g>
<!-- h2[1]&#45;&gt;y -->
<g id="edge23" class="edge">
<title>h2[1]&#45;&gt;y</title>
<path fill="none" stroke="black" d="M257.03,-160.08C271.12,-151.72 292.44,-139.07 308.91,-129.3"/>
<polygon fill="black" stroke="black" points="310.14,-132.04 316.95,-123.93 306.56,-126.02 310.14,-132.04"/>
</g>
<!-- h2[2]&#45;&gt;y -->
<g id="edge24" class="edge">
<title>h2[2]&#45;&gt;y</title>
<path fill="none" stroke="black" d="M259.12,-115C272,-115 289.94,-115 304.91,-115"/>
<polygon fill="black" stroke="black" points="304.65,-118.5 314.65,-115 304.65,-111.5 304.65,-118.5"/>
</g>
</g>
</svg>