<?xml version="1.0" encoding="UTF-8" standalone="no"?>
<!DOCTYPE svg PUBLIC "-//W3C//DTD SVG 1.1//EN"
 "http://www.w3.org/Graphics/SVG/1.1/DTD/svg11.dtd">
<!-- Generated by graphviz version 6.0.1 (0)
 -->
<!-- Title: Tree Pages: 1 -->
<svg width="1156pt" height="373pt"
 viewBox="0.00 0.00 1156.00 373.00" xmlns="http://www.w3.org/2000/svg" xmlns:xlink="http://www.w3.org/1999/xlink">
<g id="graph0" class="graph" transform="scale(1 1) rotate(0) translate(4 369)">
<title>Tree</title>
<polygon fill="white" stroke="none" points="-4,4 -4,-369 1152,-369 1152,4 -4,4"/>
<!-- 0 -->
<g id="node1" class="node">
<title>0</title>
<polygon fill="none" stroke="black" points="701,-365 438,-365 438,-297 701,-297 701,-365"/>
<text text-anchor="middle" x="569.5" y="-349.8" font-family="Helvetica,sans-Serif" font-size="14.00">marital.status_Married&#45;civ&#45;spouse &lt;= 0.5</text>
<text text-anchor="middle" x="569.5" y="-334.8" font-family="Helvetica,sans-Serif" font-size="14.00">gini = 0.367</text>
<text text-anchor="middle" x="569.5" y="-319.8" font-family="Helvetica,sans-Serif" font-size="14.00">counts = [19744, 6304]</text>
<text text-anchor="middle" x="569.5" y="-304.8" font-family="Helvetica,sans-Serif" font-size="14.00">class = 0</text>
</g>
<!-- 1 -->
<g id="node2" class="node">
<title>1</title>
<polygon fill="none" stroke="black" points="510,-261 363,-261 363,-193 510,-193 510,-261"/>
<text text-anchor="middle" x="436.5" y="-245.8" font-family="Helvetica,sans-Serif" font-size="14.00">capital.gain &lt;= 0.794</text>
<text text-anchor="middle" x="436.5" y="-230.8" font-family="Helvetica,sans-Serif" font-size="14.00">gini = 0.122</text>
<text text-anchor="middle" x="436.5" y="-215.8" font-family="Helvetica,sans-Serif" font-size="14.00">counts = [13149, 922]</text>
<text text-anchor="middle" x="436.5" y="-200.8" font-family="Helvetica,sans-Serif" font-size="14.00">class = 0</text>
</g>
<!-- 0&#45;&gt;1 -->
<g id="edge1" class="edge">
<title>0&#45;&gt;1</title>
<path fill="none" stroke="black" d="M526.32,-296.88C514.12,-287.53 500.73,-277.26 488.09,-267.57"/>
<polygon fill="black" stroke="black" points="489.98,-264.61 479.92,-261.3 485.72,-270.16 489.98,-264.61"/>
<text text-anchor="middle" x="483.19" y="-282.38" font-family="Helvetica,sans-Serif" font-size="14.00">True</text>
</g>
<!-- 8 -->
<g id="node9" class="node">
<title>8</title>
<polygon fill="none" stroke="black" points="799,-261 652,-261 652,-193 799,-193 799,-261"/>
<text text-anchor="middle" x="725.5" y="-245.8" font-family="Helvetica,sans-Serif" font-size="14.00">capital.gain &lt;= 0.531</text>
<text text-anchor="middle" x="725.5" y="-230.8" font-family="Helvetica,sans-Serif" font-size="14.00">gini = 0.495</text>
<text text-anchor="middle" x="725.5" y="-215.8" font-family="Helvetica,sans-Serif" font-size="14.00">counts = [6595, 5382]</text>
<text text-anchor="middle" x="725.5" y="-200.8" font-family="Helvetica,sans-Serif" font-size="14.00">class = 0</text>
</g>
<!-- 0&#45;&gt;8 -->
<g id="edge8" class="edge">
<title>0&#45;&gt;8</title>
<path fill="none" stroke="black" d="M620.15,-296.88C634.8,-287.3 650.92,-276.76 666.06,-266.86"/>
<polygon fill="black" stroke="black" points="668.38,-269.53 674.84,-261.12 664.55,-263.67 668.38,-269.53"/>
<text text-anchor="middle" x="669.72" y="-281.89" font-family="Helvetica,sans-Serif" font-size="14.00">False</text>
</g>
<!-- 2 -->
<g id="node3" class="node">
<title>2</title>
<polygon fill="none" stroke="black" points="309,-157 162,-157 162,-89 309,-89 309,-157"/>
<text text-anchor="middle" x="235.5" y="-141.8" font-family="Helvetica,sans-Serif" font-size="14.00">education &lt;= 12.5</text>
<text text-anchor="middle" x="235.5" y="-126.8" font-family="Helvetica,sans-Serif" font-size="14.00">gini = 0.094</text>
<text text-anchor="middle" x="235.5" y="-111.8" font-family="Helvetica,sans-Serif" font-size="14.00">counts = [13140, 682]</text>
<text text-anchor="middle" x="235.5" y="-96.8" font-family="Helvetica,sans-Serif" font-size="14.00">class = 0</text>
</g>
<!-- 1&#45;&gt;2 -->
<g id="edge2" class="edge">
<title>1&#45;&gt;2</title>
<path fill="none" stroke="black" d="M371.24,-192.88C351.66,-182.95 330.03,-171.97 309.9,-161.76"/>
<polygon fill="black" stroke="black" points="311.28,-158.53 300.78,-157.12 308.11,-164.77 311.28,-158.53"/>
</g>
<!-- 5 -->
<g id="node6" class="node">
<title>5</title>
<polygon fill="none" stroke="black" points="495,-157 378,-157 378,-89 495,-89 495,-157"/>
<text text-anchor="middle" x="436.5" y="-141.8" font-family="Helvetica,sans-Serif" font-size="14.00">age &lt;= &#45;1.364</text>
<text text-anchor="middle" x="436.5" y="-126.8" font-family="Helvetica,sans-Serif" font-size="14.00">gini = 0.07</text>
<text text-anchor="middle" x="436.5" y="-111.8" font-family="Helvetica,sans-Serif" font-size="14.00">counts = [9, 240]</text>
<text text-anchor="middle" x="436.5" y="-96.8" font-family="Helvetica,sans-Serif" font-size="14.00">class = 1</text>
</g>
<!-- 1&#45;&gt;5 -->
<g id="edge5" class="edge">
<title>1&#45;&gt;5</title>
<path fill="none" stroke="black" d="M436.5,-192.88C436.5,-184.78 436.5,-175.98 436.5,-167.47"/>
<polygon fill="black" stroke="black" points="440,-167.3 436.5,-157.3 433,-167.3 440,-167.3"/>
</g>
<!-- 3 -->
<g id="node4" class="node">
<title>3</title>
<polygon fill="none" stroke="black" points="147,-53 0,-53 0,0 147,0 147,-53"/>
<text text-anchor="middle" x="73.5" y="-37.8" font-family="Helvetica,sans-Serif" font-size="14.00">gini = 0.054</text>
<text text-anchor="middle" x="73.5" y="-22.8" font-family="Helvetica,sans-Serif" font-size="14.00">counts = [10871, 311]</text>
<text text-anchor="middle" x="73.5" y="-7.8" font-family="Helvetica,sans-Serif" font-size="14.00">class = 0</text>
</g>
<!-- 2&#45;&gt;3 -->
<g id="edge3" class="edge">
<title>2&#45;&gt;3</title>
<path fill="none" stroke="black" d="M178.84,-88.95C161.67,-78.93 142.89,-67.98 126,-58.13"/>
<polygon fill="black" stroke="black" points="127.76,-55.1 117.36,-53.09 124.24,-61.15 127.76,-55.1"/>
</g>
<!-- 4 -->
<g id="node5" class="node">
<title>4</title>
<polygon fill="none" stroke="black" points="305.5,-53 165.5,-53 165.5,0 305.5,0 305.5,-53"/>
<text text-anchor="middle" x="235.5" y="-37.8" font-family="Helvetica,sans-Serif" font-size="14.00">gini = 0.242</text>
<text text-anchor="middle" x="235.5" y="-22.8" font-family="Helvetica,sans-Serif" font-size="14.00">counts = [2269, 371]</text>
<text text-anchor="middle" x="235.5" y="-7.8" font-family="Helvetica,sans-Serif" font-size="14.00">class = 0</text>
</g>
<!-- 2&#45;&gt;4 -->
<g id="edge4" class="edge">
<title>2&#45;&gt;4</title>
<path fill="none" stroke="black" d="M235.5,-88.95C235.5,-80.72 235.5,-71.85 235.5,-63.48"/>
<polygon fill="black" stroke="black" points="239,-63.24 235.5,-53.24 232,-63.24 239,-63.24"/>
</g>
<!-- 6 -->
<g id="node7" class="node">
<title>6</title>
<polygon fill="none" stroke="black" points="425.5,-53 323.5,-53 323.5,0 425.5,0 425.5,-53"/>
<text text-anchor="middle" x="374.5" y="-37.8" font-family="Helvetica,sans-Serif" font-size="14.00">gini = 0.0</text>
<text text-anchor="middle" x="374.5" y="-22.8" font-family="Helvetica,sans-Serif" font-size="14.00">counts = [2, 0]</text>
<text text-anchor="middle" x="374.5" y="-7.8" font-family="Helvetica,sans-Serif" font-size="14.00">class = 0</text>
</g>
<!-- 5&#45;&gt;6 -->
<g id="edge6" class="edge">
<title>5&#45;&gt;6</title>
<path fill="none" stroke="black" d="M414.82,-88.95C409.05,-80.17 402.82,-70.66 397.01,-61.82"/>
<polygon fill="black" stroke="black" points="399.8,-59.68 391.39,-53.24 393.94,-63.52 399.8,-59.68"/>
</g>
<!-- 7 -->
<g id="node8" class="node">
<title>7</title>
<polygon fill="none" stroke="black" points="561,-53 444,-53 444,0 561,0 561,-53"/>
<text text-anchor="middle" x="502.5" y="-37.8" font-family="Helvetica,sans-Serif" font-size="14.00">gini = 0.055</text>
<text text-anchor="middle" x="502.5" y="-22.8" font-family="Helvetica,sans-Serif" font-size="14.00">counts = [7, 240]</text>
<text text-anchor="middle" x="502.5" y="-7.8" font-family="Helvetica,sans-Serif" font-size="14.00">class = 1</text>
</g>
<!-- 5&#45;&gt;7 -->
<g id="edge7" class="edge">
<title>5&#45;&gt;7</title>
<path fill="none" stroke="black" d="M459.58,-88.95C465.78,-80.07 472.49,-70.46 478.73,-61.54"/>
<polygon fill="black" stroke="black" points="481.67,-63.44 484.53,-53.24 475.93,-59.43 481.67,-63.44"/>
</g>
<!-- 9 -->
<g id="node10" class="node">
<title>9</title>
<polygon fill="none" stroke="black" points="799,-157 652,-157 652,-89 799,-89 799,-157"/>
<text text-anchor="middle" x="725.5" y="-141.8" font-family="Helvetica,sans-Serif" font-size="14.00">education &lt;= 12.5</text>
<text text-anchor="middle" x="725.5" y="-126.8" font-family="Helvetica,sans-Serif" font-size="14.00">gini = 0.48</text>
<text text-anchor="middle" x="725.5" y="-111.8" font-family="Helvetica,sans-Serif" font-size="14.00">counts = [6584, 4407]</text>
<text text-anchor="middle" x="725.5" y="-96.8" font-family="Helvetica,sans-Serif" font-size="14.00">class = 0</text>
</g>
<!-- 8&#45;&gt;9 -->
<g id="edge9" class="edge">
<title>8&#45;&gt;9</title>
<path fill="none" stroke="black" d="M725.5,-192.88C725.5,-184.78 725.5,-175.98 725.5,-167.47"/>
<polygon fill="black" stroke="black" points="729,-167.3 725.5,-157.3 722,-167.3 729,-167.3"/>
</g>
<!-- 12 -->
<g id="node13" class="node">
<title>12</title>
<polygon fill="none" stroke="black" points="1016,-157 891,-157 891,-89 1016,-89 1016,-157"/>
<text text-anchor="middle" x="953.5" y="-141.8" font-family="Helvetica,sans-Serif" font-size="14.00">education &lt;= 1.0</text>
<text text-anchor="middle" x="953.5" y="-126.8" font-family="Helvetica,sans-Serif" font-size="14.00">gini = 0.022</text>
<text text-anchor="middle" x="953.5" y="-111.8" font-family="Helvetica,sans-Serif" font-size="14.00">counts = [11, 975]</text>
<text text-anchor="middle" x="953.5" y="-96.8" font-family="Helvetica,sans-Serif" font-size="14.00">class = 1</text>
</g>
<!-- 8&#45;&gt;12 -->
<g id="edge12" class="edge">
<title>8&#45;&gt;12</title>
<path fill="none" stroke="black" d="M799.21,-193.02C825.63,-181.21 855.36,-167.9 881.62,-156.16"/>
<polygon fill="black" stroke="black" points="883.06,-159.35 890.76,-152.07 880.2,-152.96 883.06,-159.35"/>
</g>
<!-- 10 -->
<g id="node11" class="node">
<title>10</title>
<polygon fill="none" stroke="black" points="726,-53 579,-53 579,0 726,0 726,-53"/>
<text text-anchor="middle" x="652.5" y="-37.8" font-family="Helvetica,sans-Serif" font-size="14.00">gini = 0.429</text>
<text text-anchor="middle" x="652.5" y="-22.8" font-family="Helvetica,sans-Serif" font-size="14.00">counts = [5634, 2556]</text>
<text text-anchor="middle" x="652.5" y="-7.8" font-family="Helvetica,sans-Serif" font-size="14.00">class = 0</text>
</g>
<!-- 9&#45;&gt;10 -->
<g id="edge10" class="edge">
<title>9&#45;&gt;10</title>
<path fill="none" stroke="black" d="M699.97,-88.95C693.04,-79.98 685.54,-70.27 678.58,-61.26"/>
<polygon fill="black" stroke="black" points="681.26,-59.01 672.38,-53.24 675.72,-63.29 681.26,-59.01"/>
</g>
<!-- 11 -->
<g id="node12" class="node">
<title>11</title>
<polygon fill="none" stroke="black" points="884.5,-53 744.5,-53 744.5,0 884.5,0 884.5,-53"/>
<text text-anchor="middle" x="814.5" y="-37.8" font-family="Helvetica,sans-Serif" font-size="14.00">gini = 0.448</text>
<text text-anchor="middle" x="814.5" y="-22.8" font-family="Helvetica,sans-Serif" font-size="14.00">counts = [950, 1851]</text>
<text text-anchor="middle" x="814.5" y="-7.8" font-family="Helvetica,sans-Serif" font-size="14.00">class = 1</text>
</g>
<!-- 9&#45;&gt;11 -->
<g id="edge11" class="edge">
<title>9&#45;&gt;11</title>
<path fill="none" stroke="black" d="M756.63,-88.95C765.24,-79.8 774.6,-69.87 783.22,-60.71"/>
<polygon fill="black" stroke="black" points="785.95,-62.92 790.26,-53.24 780.86,-58.12 785.95,-62.92"/>
</g>
<!-- 13 -->
<g id="node14" class="node">
<title>13</title>
<polygon fill="none" stroke="black" points="1004.5,-53 902.5,-53 902.5,0 1004.5,0 1004.5,-53"/>
<text text-anchor="middle" x="953.5" y="-37.8" font-family="Helvetica,sans-Serif" font-size="14.00">gini = 0.0</text>
<text text-anchor="middle" x="953.5" y="-22.8" font-family="Helvetica,sans-Serif" font-size="14.00">counts = [1, 0]</text>
<text text-anchor="middle" x="953.5" y="-7.8" font-family="Helvetica,sans-Serif" font-size="14.00">class = 0</text>
</g>
<!-- 12&#45;&gt;13 -->
<g id="edge13" class="edge">
<title>12&#45;&gt;13</title>
<path fill="none" stroke="black" d="M953.5,-88.95C953.5,-80.72 953.5,-71.85 953.5,-63.48"/>
<polygon fill="black" stroke="black" points="957,-63.24 953.5,-53.24 950,-63.24 957,-63.24"/>
</g>
<!-- 14 -->
<g id="node15" class="node">
<title>14</title>
<polygon fill="none" stroke="black" points="1148,-53 1023,-53 1023,0 1148,0 1148,-53"/>
<text text-anchor="middle" x="1085.5" y="-37.8" font-family="Helvetica,sans-Serif" font-size="14.00">gini = 0.02</text>
<text text-anchor="middle" x="1085.5" y="-22.8" font-family="Helvetica,sans-Serif" font-size="14.00">counts = [10, 975]</text>
<text text-anchor="middle" x="1085.5" y="-7.8" font-family="Helvetica,sans-Serif" font-size="14.00">class = 1</text>
</g>
<!-- 12&#45;&gt;14 -->
<g id="edge14" class="edge">
<title>12&#45;&gt;14</title>
<path fill="none" stroke="black" d="M999.67,-88.95C1013.21,-79.25 1027.99,-68.68 1041.4,-59.07"/>
<polygon fill="black" stroke="black" points="1043.46,-61.9 1049.55,-53.24 1039.38,-56.21 1043.46,-61.9"/>
</g>
</g>
</svg>